<?xml version="1.0" encoding="UTF-8" standalone="no"?>
<!DOCTYPE svg PUBLIC "-//W3C//DTD SVG 1.1//EN" "http://www.w3.org/Graphics/SVG/1.1/DTD/svg11.dtd">
<svg width="100%" height="100%" viewBox="0 0 3308 3308" version="1.1" xmlns="http://www.w3.org/2000/svg" xmlns:xlink="http://www.w3.org/1999/xlink" xml:space="preserve" xmlns:serif="http://www.serif.com/" style="fill-rule:evenodd;clip-rule:evenodd;stroke-linejoin:round;stroke-miterlimit:1.41421;">
  <g transform="matrix(1.33333,0,0,1.33333,0,0)">

    <path id="bg" d="
M1577.37,441.83
L1258.26,1423.55
L1721.45,1268.83
L2133.39,1518.84
L2135.96,1540.39
L2316.18,1640.33
L2326.56,1738.41
L1240.16,2310.67
L153.758,1738.41
L164.134,1640.33
L344.358,1540.39
L346.925,1518.84
L758.864,1268.83
L1222.05,1423.55
L902.949,441.83
L1240.16,162.649
L1577.37,441.83
Z
M857.253,474.047
L1179.7,1392.12
L325.143,892.033
L425.972,471.052
L857.253,474.047
Z
M2155.17,892.033
L1300.61,1392.12
L1623.06,474.047
L2054.34,471.052
L2155.17,892.033
Z" style="fill:url(#_Linear3)"/>

    <path id="right-cover" d="
M1240.16,2180.53
L1230.16,2170.53
L1230.16,1570
L1240.16,1570
L1755.45,1377.05
L2277.03,1666.26
L2277.03,1676.26
Z" style="fill:url(#_Linear6)"/>
    <path id="left-cover" d="
M1240.16,2180.53
L1240.16,1570
L1755.45,1377.05
L2277.03,1666.26
L2277.03,1676.26
Z" style="fill:url(#_Linear7)" transform="matrix(-1,0,-0,1,2480.31,0)"/>
    <path id="right-cover-edge" d="
M1240.16,2263.57
L1230.16,2253.57
L1230.16,2160.53
L1240.16,2160.53
L2277.03,1666.26
L2282.15,1714.71
Z" style="fill:url(#_Linear4)"/>
    <path id="left-cover-edge" d="
M1240.16,2263.57
L1240.16,2160.53
L2277.03,1666.26
L2282.15,1714.71
Z" style="fill:url(#_Linear5)" transform="matrix(-1,0,-0,1,2480.31,0)"/>


    <path id="right-page" d="
M1230.16,1874.37
L1240.16,1884.37
L2094.42,1553.92
L2094.42,1543.92
L1716.34,1314.47
L1240.16,1473.52
L1230.16,1473.52
Z" style="fill:url(#_Linear9)"/>
    <path id="left-page" d="
M1240.16,1884.37
L2094.42,1553.92
L2094.42,1543.92
L1716.34,1314.47
L1240.16,1473.52
Z" style="fill:url(#_Linear10)" transform="matrix(-1,0,-0,1,2480.31,0)"/>
    <path id="right-page-edge" d="
M1240.16,2047.16
L1230.16,2037.16
L1230.16,1874.37
L1240.16,1874.37
L2094.42,1543.92
L2107.45,1653.43
Z" style="fill:url(#_Linear8)"/>
    <path id="left-page-edge" d="
M1240.16,2047.16
L1240.16,1874.37
L2094.42,1543.92
L2107.45,1653.43
Z" style="fill:rgb(62,189,248)" transform="matrix(-1,0,-0,1,2480.31,0)"/>


    <path id="middle-beam-right" d="
M1016.9,491.5
L1240.16,262.046
L1248.16,272.046
L1242.16,1334.13
L1240.16,1344.13
L1016.9,491.5
Z" style="fill:url(#_Linear12)" transform="matrix(-1.29369,0,-0,1.04217,2844.54,-56.3542)"/>
    <path id="middle-beam-left" d="
M1016.9,491.5
L1240.16,262.046
L1240.16,1344.13
L1016.9,491.5
Z" style="fill:url(#_Linear11)" transform="matrix(1.29369,0,0,1.04217,-364.227,-56.3542)"/>

    <path id="left-beam" d="
M999.537,557.796
L1222.8,328.342
L1446.06,557.796
L1240.16,1344.13
L999.537,557.796
Z" style="fill:url(#_Linear13)" transform="matrix(1.01852,-0.79766,0.616575,0.787296,-989.11,1229.82)"/>
    <path id="right-beam" d="
M999.537,557.796
L1222.8,328.342
L1446.06,557.796
L1240.16,1344.13
L999.537,557.796
Z" style="fill:url(#_Linear14)" transform="matrix(-1.01852,-0.79766,-0.616575,0.787296,3469.42,1229.82)"/>

    <path id="right-page-shine" d="
M1402.64,1811.52
L1614.97,1729.38
L1290.79,1456.61
L1240.16,1473.52
L1240.16,1674.8
L1402.64,1811.52
Z
M1760.19,1673.21
L1822.28,1649.19
L1507.41,1384.25
L1442.53,1405.92
L1760.19,1673.21
Z
M1929.04,1607.89
L2094.42,1543.92
L1716.34,1314.47
L1618.97,1346.99
L1929.04,1607.89
Z" style="fill:white"/>
    <path id="left-page-shine" d="
M1126.69,1830.48
L1222.34,1867.48
L1085.41,1421.83
L991.491,1390.46
L1126.69,1830.48
Z
M754.135,1686.36
L949.281,1761.85
L817.292,1332.28
L763.976,1314.47
L659.374,1377.95
L754.135,1686.36
Z
M676.455,1656.32
L601.684,1412.96
L543.994,1447.98
L598.775,1626.27
L676.455,1656.32
Z
M484.673,1582.13
L459.255,1499.4
L385.899,1543.92
L484.673,1582.13
Z" style="fill:url(#_Linear15)"/> 


  </g>
  <defs>
    <linearGradient id="_Linear3" x1="0" y1="0" x2="1" y2="0" gradientUnits="userSpaceOnUse" gradientTransform="matrix(4.75175e-13,-500.495,500.495,4.75175e-13,1240.16,1344.45)">
      <stop offset="0" style="stop-color:rgb(0,63,147);stop-opacity:1"/>
      <stop offset="1" style="stop-color:rgb(0,111,228);stop-opacity:1"/>
    </linearGradient>
    <linearGradient id="_Linear4" x1="0" y1="0" x2="1" y2="0" gradientUnits="userSpaceOnUse" gradientTransform="matrix(-42.3707,-394.373,394.373,-42.3707,1765.39,2336.72)">
      <stop offset="0" style="stop-color:rgb(0,111,228);stop-opacity:1"/>
      <stop offset="1" style="stop-color:rgb(62,189,248);stop-opacity:1"/>
    </linearGradient>
    <linearGradient id="_Linear5" x1="0" y1="0" x2="1" y2="0" gradientUnits="userSpaceOnUse" gradientTransform="matrix(-42.3707,-133.631,-133.631,42.3707,1914.34,1903.23)">
      <stop offset="0" style="stop-color:rgb(62,189,248);stop-opacity:1"/>
      <stop offset="1" style="stop-color:rgb(206,240,254);stop-opacity:1"/>
    </linearGradient>
    <linearGradient id="_Linear6" x1="0" y1="0" x2="1" y2="0" gradientUnits="userSpaceOnUse" gradientTransform="matrix(1788.69,-920.421,920.421,1788.69,687.875,2268.27)">
      <stop offset="0" style="stop-color:rgb(0,111,228);stop-opacity:1"/>
      <stop offset="1" style="stop-color:rgb(62,189,248);stop-opacity:1"/>
    </linearGradient>
    <linearGradient id="_Linear7" x1="0" y1="0" x2="1" y2="0" gradientUnits="userSpaceOnUse" gradientTransform="matrix(-740.509,810.909,810.909,740.509,2457.33,1040.17)">
      <stop offset="0" style="stop-color:rgb(62,189,248);stop-opacity:1"/>
      <stop offset="1" style="stop-color:rgb(0,111,228);stop-opacity:1"/>
    </linearGradient>
    <linearGradient id="_Linear8" x1="0" y1="0" x2="1" y2="0" gradientUnits="userSpaceOnUse" gradientTransform="matrix(1260.43,-558.511,558.511,1260.43,550.594,2296.17)">
      <stop offset="0" style="stop-color:rgb(0,111,228);stop-opacity:1"/>
      <stop offset="1" style="stop-color:rgb(62,189,248);stop-opacity:1"/>
    </linearGradient>
    <linearGradient id="_Linear9" x1="0" y1="0" x2="1" y2="0" gradientUnits="userSpaceOnUse" gradientTransform="matrix(-517.313,358.782,-358.782,-517.313,1706.52,1477.86)">
      <stop offset="0" style="stop-color:white;stop-opacity:1"/>
      <stop offset="1" style="stop-color:rgb(206,240,254);stop-opacity:1"/>
    </linearGradient>
    <linearGradient id="_Linear10" x1="0" y1="0" x2="1" y2="0" gradientUnits="userSpaceOnUse" gradientTransform="matrix(567.376,-531.915,-531.915,-567.376,1072.09,2032.72)">
      <stop offset="0" style="stop-color:rgb(62,189,248);stop-opacity:1"/>
      <stop offset="1" style="stop-color:rgb(206,240,254);stop-opacity:1"/>
    </linearGradient>
    <linearGradient id="_Linear11" x1="0" y1="0" x2="1" y2="0" gradientUnits="userSpaceOnUse" gradientTransform="matrix(439.437,939.517,-756.852,545.494,800.721,435.886)">
      <stop offset="0" style="stop-color:white;stop-opacity:1"/>
      <stop offset="1" style="stop-color:rgb(206,240,254);stop-opacity:1"/>
    </linearGradient>
    <linearGradient id="_Linear12" x1="0" y1="0" x2="1" y2="0" gradientUnits="userSpaceOnUse" gradientTransform="matrix(439.437,939.517,-756.852,545.494,800.721,435.886)">
      <stop offset="0" style="stop-color:rgb(206,240,254);stop-opacity:1"/>
      <stop offset="1" style="stop-color:rgb(62,189,248);stop-opacity:1"/>
    </linearGradient>
    <linearGradient id="_Linear13" x1="0" y1="0" x2="1" y2="0" gradientUnits="userSpaceOnUse" gradientTransform="matrix(-120.689,1121.39,-866.812,-156.135,1407.17,369.032)">
      <stop offset="0" style="stop-color:white;stop-opacity:1"/>
      <stop offset="1" style="stop-color:rgb(206,240,254);stop-opacity:1"/>
    </linearGradient>
    <linearGradient id="_Linear14" x1="0" y1="0" x2="1" y2="0" gradientUnits="userSpaceOnUse" gradientTransform="matrix(-120.689,1121.39,-866.812,-156.135,1407.17,369.032)">
      <stop offset="0" style="stop-color:rgb(206,240,254);stop-opacity:1"/>
      <stop offset="1" style="stop-color:rgb(62,189,248);stop-opacity:1"/>
    </linearGradient>
    <linearGradient id="_Linear15" x1="0" y1="0" x2="1" y2="0" gradientUnits="userSpaceOnUse" gradientTransform="matrix(297.247,457.343,-457.343,297.247,924.291,1521.14)">
      <stop offset="0" style="stop-color:white;stop-opacity:1"/>
      <stop offset="1" style="stop-color:rgb(62,189,248);stop-opacity:1"/>
    </linearGradient>
  </defs>
</svg>
